<svg width="32" height="32" viewBox="0 0 32 32" fill="none" xmlns="http://www.w3.org/2000/svg">
<path d="M8.88889 0C3.98756 0 0 3.98756 0 8.88889V23.1111C0 28.0124 3.98756 32 8.88889 32H23.1111C28.0124 32 32 28.0124 32 23.1111V8.88889C32 3.98756 28.0124 0 23.1111 0H8.88889ZM8.88889 3.55556H23.1111C26.0516 3.55556 28.4444 5.94844 28.4444 8.88889V23.1111C28.4444 26.0516 26.0516 28.4444 23.1111 28.4444H8.88889C5.94844 28.4444 3.55556 26.0516 3.55556 23.1111V8.88889C3.55556 5.94844 5.94844 3.55556 8.88889 3.55556ZM24.8889 5.33333C24.4174 5.33333 23.9652 5.52063 23.6318 5.85403C23.2984 6.18743 23.1111 6.63962 23.1111 7.11111C23.1111 7.58261 23.2984 8.03479 23.6318 8.36819C23.9652 8.70159 24.4174 8.88889 24.8889 8.88889C25.3604 8.88889 25.8126 8.70159 26.146 8.36819C26.4794 8.03479 26.6667 7.58261 26.6667 7.11111C26.6667 6.63962 26.4794 6.18743 26.146 5.85403C25.8126 5.52063 25.3604 5.33333 24.8889 5.33333ZM16 7.11111C11.0987 7.11111 7.11111 11.0987 7.11111 16C7.11111 20.9013 11.0987 24.8889 16 24.8889C20.9013 24.8889 24.8889 20.9013 24.8889 16C24.8889 11.0987 20.9013 7.11111 16 7.11111ZM16 10.6667C18.9404 10.6667 21.3333 13.0596 21.3333 16C21.3333 18.9404 18.9404 21.3333 16 21.3333C13.0596 21.3333 10.6667 18.9404 10.6667 16C10.6667 13.0596 13.0596 10.6667 16 10.6667Z" fill="#FAFAFA"/>
</svg>
