<svg width="140" height="50" viewBox="0 0 140 50" fill="none" xmlns="http://www.w3.org/2000/svg">
<path d="M40.7603 7.80796C39.6092 8.7402 21.6582 13.7842 21.6582 13.7842L21.3654 12.5454C21.3654 12.5454 37.9636 4.35455 40.1217 4.6689C42.2798 4.98325 41.9115 6.87572 40.7603 7.80796Z" fill="#54A654"/>
<path d="M48 24C48 30.3652 45.4714 36.4697 40.9706 40.9706C36.4697 45.4714 30.3652 48 24 48C17.6348 48 11.5303 45.4714 7.02944 40.9706C2.52857 36.4697 9.61118e-07 30.3652 0 24L24 24H48Z" fill="#54A654"/>
<ellipse cx="15.0229" cy="15.8584" rx="5.6755" ry="7.33194" transform="rotate(-114.475 15.0229 15.8584)" fill="#54A654"/>
<path d="M61.424 22H57.776V4.768H61.424V12.352L67.688 4.768H71.864L65.024 13.024L72.056 22H67.568L61.424 14.128V22ZM76.6678 15.784V22H73.3318V9.184H76.4038V11.656C77.3398 10.024 79.3318 9.04 81.3958 9.04V12.496C78.5638 12.28 76.6678 12.952 76.6678 15.784ZM88.6029 22.216C84.7629 22.216 82.1949 19.552 82.1949 15.544C82.1949 11.728 84.8589 8.944 88.5549 8.944C92.6109 8.944 95.2989 12.232 94.6989 16.408H85.6029C85.8189 18.496 86.8269 19.648 88.5309 19.648C89.9949 19.648 90.9789 18.928 91.3629 17.656H94.6749C93.9549 20.56 91.7229 22.216 88.6029 22.216ZM88.4829 11.392C86.9229 11.392 85.9389 12.4 85.6509 14.296H91.1709C91.0749 12.52 90.0669 11.392 88.4829 11.392ZM104.565 22V20.416C103.725 21.616 102.453 22.24 100.701 22.24C98.0373 22.24 96.2613 20.68 96.2613 18.28C96.2613 15.784 98.2773 14.44 102.021 14.44C102.741 14.44 103.365 14.488 104.157 14.584V13.816C104.157 12.376 103.341 11.536 101.949 11.536C100.509 11.536 99.6453 12.376 99.5253 13.816H96.5253C96.7173 10.864 98.8533 8.944 101.949 8.944C105.309 8.944 107.277 10.792 107.277 13.936V22H104.565ZM99.4053 18.184C99.4053 19.264 100.173 19.936 101.421 19.936C103.125 19.936 104.157 19 104.157 17.512V16.6C103.365 16.48 102.813 16.432 102.237 16.432C100.341 16.432 99.4053 17.032 99.4053 18.184ZM117.933 18.76V21.664C117.117 22.072 116.349 22.24 115.365 22.24C112.725 22.24 111.069 20.728 111.069 17.848V12.04H108.477V9.184H111.069V5.392H114.381V9.184H118.053V12.04H114.381V17.08C114.381 18.568 115.053 19.168 116.253 19.168C116.877 19.168 117.453 19.024 117.933 18.76ZM123.954 6.208C123.954 7.336 123.042 8.176 121.722 8.176C120.426 8.176 119.514 7.336 119.514 6.208C119.514 5.032 120.426 4.192 121.722 4.192C123.042 4.192 123.954 5.032 123.954 6.208ZM123.426 22H120.09V9.184H123.426V22ZM137.938 9.184L133.234 22H129.586L124.858 9.184H128.458L131.506 18.208L134.578 9.184H137.938ZM61.424 47H57.776V29.768H61.424V37.352L67.688 29.768H71.864L65.024 38.024L72.056 47H67.568L61.424 39.128V47ZM78.2223 47.24C74.5023 47.24 71.7183 44.312 71.7183 40.592C71.7183 36.848 74.5023 33.944 78.2223 33.944C81.9423 33.944 84.7263 36.848 84.7263 40.592C84.7263 44.312 81.9423 47.24 78.2223 47.24ZM78.2223 44.288C79.8783 44.288 81.2943 42.968 81.2943 40.592C81.2943 38.216 79.8783 36.92 78.2223 36.92C76.5663 36.92 75.1503 38.216 75.1503 40.592C75.1503 42.968 76.5663 44.288 78.2223 44.288ZM97.6792 42.896C97.6792 45.584 95.6392 47.24 91.9912 47.24C88.3432 47.24 86.3032 45.488 86.0392 42.632H89.2312C89.2552 43.952 90.3832 44.792 92.0392 44.792C93.3352 44.792 94.3192 44.384 94.3192 43.472C94.3192 42.656 93.7912 42.32 92.5672 42.08L90.2632 41.648C87.9592 41.24 86.5672 39.968 86.5672 37.976C86.5672 35.6 88.6072 33.944 91.7992 33.944C95.0152 33.944 97.2232 35.648 97.4632 38.408H94.2712C94.1512 37.16 93.2152 36.392 91.7992 36.392C90.5752 36.392 89.7592 36.848 89.7592 37.664C89.7592 38.432 90.2872 38.744 91.4392 38.96L93.9112 39.416C96.4072 39.896 97.6792 41.048 97.6792 42.896ZM107.667 43.76V46.664C106.851 47.072 106.083 47.24 105.099 47.24C102.459 47.24 100.803 45.728 100.803 42.848V37.04H98.2109V34.184H100.803V30.392H104.115V34.184H107.787V37.04H104.115V42.08C104.115 43.568 104.787 44.168 105.987 44.168C106.611 44.168 107.187 44.024 107.667 43.76Z" fill="#FAFAFA"/>
</svg>
