<svg width="142" height="24" viewBox="0 0 142 24" fill="none" xmlns="http://www.w3.org/2000/svg">
<path d="M6.66667 0C2.99067 0 0 2.99067 0 6.66667L0 17.3333C0 21.0093 2.99067 24 6.66667 24H17.3333C21.0093 24 24 21.0093 24 17.3333V6.66667C24 2.99067 21.0093 0 17.3333 0L6.66667 0ZM6.66667 2.66667H17.3333C19.5387 2.66667 21.3333 4.46133 21.3333 6.66667V17.3333C21.3333 19.5387 19.5387 21.3333 17.3333 21.3333H6.66667C4.46133 21.3333 2.66667 19.5387 2.66667 17.3333V6.66667C2.66667 4.46133 4.46133 2.66667 6.66667 2.66667ZM18.6667 4C18.313 4 17.9739 4.14048 17.7239 4.39052C17.4738 4.64057 17.3333 4.97971 17.3333 5.33333C17.3333 5.68696 17.4738 6.02609 17.7239 6.27614C17.9739 6.52619 18.313 6.66667 18.6667 6.66667C19.0203 6.66667 19.3594 6.52619 19.6095 6.27614C19.8595 6.02609 20 5.68696 20 5.33333C20 4.97971 19.8595 4.64057 19.6095 4.39052C19.3594 4.14048 19.0203 4 18.6667 4ZM12 5.33333C8.324 5.33333 5.33333 8.324 5.33333 12C5.33333 15.676 8.324 18.6667 12 18.6667C15.676 18.6667 18.6667 15.676 18.6667 12C18.6667 8.324 15.676 5.33333 12 5.33333ZM12 8C14.2053 8 16 9.79467 16 12C16 14.2053 14.2053 16 12 16C9.79467 16 8 14.2053 8 12C8 9.79467 9.79467 8 12 8Z" fill="#FAFAFA"/>
<path d="M71 0C64.3868 0 59 5.3868 59 12C59 18.6132 64.3868 24 71 24C77.6132 24 83 18.6132 83 12C83 5.3868 77.6132 0 71 0ZM71 2.4C76.3161 2.4 80.6 6.68385 80.6 12C80.6 16.8174 77.0784 20.7756 72.4625 21.4781V14.8617H75.2563L75.6945 12.0234H72.4625V10.4719C72.4625 9.29227 72.8468 8.24531 73.9508 8.24531H75.7227V5.76797C75.4107 5.72597 74.7522 5.63438 73.5078 5.63438C70.9086 5.63438 69.3852 7.00717 69.3852 10.1344V12.0234H66.7133V14.8617H69.3852V21.4547C64.8443 20.689 61.4 16.7643 61.4 12C61.4 6.68385 65.6839 2.4 71 2.4Z" fill="#FAFAFA"/>
<path d="M136 6H131.2V8.4H136C137.98 8.4 139.6 10.02 139.6 12C139.6 13.98 137.98 15.6 136 15.6H131.2V18H136C139.312 18 142 15.312 142 12C142 8.688 139.312 6 136 6ZM128.8 15.6H124C122.02 15.6 120.4 13.98 120.4 12C120.4 10.02 122.02 8.4 124 8.4H128.8V6H124C120.688 6 118 8.688 118 12C118 15.312 120.688 18 124 18H128.8V15.6ZM125.2 10.8H134.8V13.2H125.2V10.8Z" fill="#FAFAFA"/>
</svg>
