<svg width="166" height="32" viewBox="0 0 166 32" fill="none" xmlns="http://www.w3.org/2000/svg">
<path d="M8.88889 0C3.98756 0 0 3.98756 0 8.88889L0 23.1111C0 28.0124 3.98756 32 8.88889 32H23.1111C28.0124 32 32 28.0124 32 23.1111V8.88889C32 3.98756 28.0124 0 23.1111 0L8.88889 0ZM8.88889 3.55556H23.1111C26.0516 3.55556 28.4444 5.94844 28.4444 8.88889V23.1111C28.4444 26.0516 26.0516 28.4444 23.1111 28.4444H8.88889C5.94844 28.4444 3.55556 26.0516 3.55556 23.1111V8.88889C3.55556 5.94844 5.94844 3.55556 8.88889 3.55556ZM24.8889 5.33333C24.4174 5.33333 23.9652 5.52063 23.6318 5.85403C23.2984 6.18743 23.1111 6.63962 23.1111 7.11111C23.1111 7.58261 23.2984 8.03479 23.6318 8.36819C23.9652 8.70159 24.4174 8.88889 24.8889 8.88889C25.3604 8.88889 25.8126 8.70159 26.146 8.36819C26.4794 8.03479 26.6667 7.58261 26.6667 7.11111C26.6667 6.63962 26.4794 6.18743 26.146 5.85403C25.8126 5.52063 25.3604 5.33333 24.8889 5.33333ZM16 7.11111C11.0987 7.11111 7.11111 11.0987 7.11111 16C7.11111 20.9013 11.0987 24.8889 16 24.8889C20.9013 24.8889 24.8889 20.9013 24.8889 16C24.8889 11.0987 20.9013 7.11111 16 7.11111ZM16 10.6667C18.9404 10.6667 21.3333 13.0596 21.3333 16C21.3333 18.9404 18.9404 21.3333 16 21.3333C13.0596 21.3333 10.6667 18.9404 10.6667 16C10.6667 13.0596 13.0596 10.6667 16 10.6667Z" fill="#FAFAFA"/>
<path d="M83 0C74.1824 0 67 7.1824 67 16C67 24.8176 74.1824 32 83 32C91.8176 32 99 24.8176 99 16C99 7.1824 91.8176 0 83 0ZM83 3.2C90.0882 3.2 95.8 8.9118 95.8 16C95.8 22.4231 91.1045 27.7008 84.95 28.6375V19.8156H88.675L89.2594 16.0313H84.95V13.9625C84.95 12.3897 85.4624 10.9938 86.9344 10.9938H89.2969V7.69063C88.8809 7.63463 88.003 7.5125 86.3438 7.5125C82.8782 7.5125 80.8469 9.3429 80.8469 13.5125V16.0313H77.2844V19.8156H80.8469V28.6063C74.7925 27.5854 70.2 22.3524 70.2 16C70.2 8.9118 75.9118 3.2 83 3.2Z" fill="#FAFAFA"/>
<path d="M158 8H151.6V11.2H158C160.64 11.2 162.8 13.36 162.8 16C162.8 18.64 160.64 20.8 158 20.8H151.6V24H158C162.416 24 166 20.416 166 16C166 11.584 162.416 8 158 8ZM148.4 20.8H142C139.36 20.8 137.2 18.64 137.2 16C137.2 13.36 139.36 11.2 142 11.2H148.4V8H142C137.584 8 134 11.584 134 16C134 20.416 137.584 24 142 24H148.4V20.8ZM143.6 14.4H156.4V17.6H143.6V14.4Z" fill="#FAFAFA"/>
</svg>
